<?xml version="1.0" encoding="UTF-8" standalone="no"?>
<!DOCTYPE svg PUBLIC "-//W3C//DTD SVG 1.1//EN" "http://www.w3.org/Graphics/SVG/1.1/DTD/svg11.dtd">
<svg version="1.1" xmlns="http://www.w3.org/2000/svg" xmlns:xlink="http://www.w3.org/1999/xlink" preserveAspectRatio="xMidYMid meet" viewBox="0 0 640 640" width="640" height="640"><defs><path d="M606.65 153.79L527.9 390.64L238.87 391.33L133.4 130L3 130.31" id="b1vaaR25v1"></path><path d="M545.75 484.02C545.75 502.79 529.73 518.03 510 518.03C490.27 518.03 474.25 502.79 474.25 484.02C474.25 465.24 490.27 450 510 450C529.73 450 545.75 465.24 545.75 484.02Z" id="b4sN6EZrEm"></path><path d="M317.84 485.98C317.84 504.76 301.82 520 282.09 520C262.36 520 246.35 504.76 246.35 485.98C246.35 467.21 262.36 451.97 282.09 451.97C301.82 451.97 317.84 467.21 317.84 485.98Z" id="iBdcpGE6n"></path></defs><g><g><g><use xlink:href="#b1vaaR25v1" opacity="1" fill="#ffffff" fill-opacity="0"></use><g><use xlink:href="#b1vaaR25v1" opacity="1" fill-opacity="0" stroke="#ffffff" stroke-width="67" stroke-opacity="1"></use></g></g><g><use xlink:href="#b4sN6EZrEm" opacity="1" fill="#ffffff" fill-opacity="1"></use><g><use xlink:href="#b4sN6EZrEm" opacity="1" fill-opacity="0" stroke="#ffffff" stroke-width="29" stroke-opacity="0"></use></g></g><g><use xlink:href="#iBdcpGE6n" opacity="1" fill="#ffffff" fill-opacity="1"></use><g><use xlink:href="#iBdcpGE6n" opacity="1" fill-opacity="0" stroke="#ffffff" stroke-width="29" stroke-opacity="0"></use></g></g></g></g></svg>