<?xml version="1.0"?>
<svg xmlns="http://www.w3.org/2000/svg" xmlns:xlink="http://www.w3.org/1999/xlink" version="1.1" id="Capa_1" x="0px" y="0px" viewBox="0 0 310 310" style="enable-background:new 0 0 310 310;" xml:space="preserve" width="512px" height="512px" class="hovered-paths"><g><g>
	<path d="M155,0C69.533,0,0,69.533,0,155s69.533,155,155,155s155-69.533,155-155S240.467,0,155,0z M216.348,270.173l-41.33-76.279   c-6.004,3.103-12.807,4.867-20.018,4.867s-14.014-1.764-20.018-4.867l-41.33,76.279c-41.064-21.961-69.086-65.238-69.17-114.951   l86.789-0.155c-0.012-0.456-0.033-0.91-0.033-1.368c0-15.325,7.926-27.525,19.885-35.345l-44.889-74.24   C106.217,31.678,129.781,24.481,155,24.481c25.217,0,48.779,7.196,68.76,19.631l-44.875,74.25   c11.955,7.82,19.877,19.969,19.877,35.29c0,0.458-0.021,0.912-0.035,1.368l86.789,0.203   C285.432,204.935,257.412,248.212,216.348,270.173z" data-original="#000000" class="hovered-path active-path" data-old_color="#000000" fill="#F08804"/>
	<circle cx="155" cy="155" r="28.052" data-original="#000000" class="hovered-path active-path" data-old_color="#000000" fill="#F08804"/>
</g></g> </svg>
